<mxfile host="app.diagrams.net" modified="2024-01-27T13:16:09.948Z" agent="Mozilla/5.0 (Windows NT 10.0; Win64; x64) AppleWebKit/537.36 (KHTML, like Gecko) Chrome/120.0.0.0 Safari/537.36" etag="TkQEMLuKnGM-KYyidEKt" version="23.0.2" type="github">
  <diagram name="第 1 页" id="rRCRnGV4jp6ZaZWyZhH4">
    <mxGraphModel dx="1077" dy="564" grid="1" gridSize="10" guides="1" tooltips="1" connect="1" arrows="1" fold="1" page="1" pageScale="1" pageWidth="827" pageHeight="1169" math="0" shadow="0">
      <root>
        <mxCell id="0" />
        <mxCell id="1" parent="0" />
        <mxCell id="hMa2aBz3UgqQ90zIbsve-13" style="edgeStyle=orthogonalEdgeStyle;rounded=0;orthogonalLoop=1;jettySize=auto;html=1;exitX=0.5;exitY=1;exitDx=0;exitDy=0;entryX=0.5;entryY=0;entryDx=0;entryDy=0;" edge="1" parent="1" source="hMa2aBz3UgqQ90zIbsve-3" target="hMa2aBz3UgqQ90zIbsve-7">
          <mxGeometry relative="1" as="geometry" />
        </mxCell>
        <mxCell id="hMa2aBz3UgqQ90zIbsve-3" value="西九龙" style="rounded=1;whiteSpace=wrap;html=1;" vertex="1" parent="1">
          <mxGeometry x="165" y="210" width="120" height="60" as="geometry" />
        </mxCell>
        <mxCell id="hMa2aBz3UgqQ90zIbsve-6" style="edgeStyle=orthogonalEdgeStyle;rounded=0;orthogonalLoop=1;jettySize=auto;html=1;exitX=0.5;exitY=1;exitDx=0;exitDy=0;entryX=0.5;entryY=0;entryDx=0;entryDy=0;" edge="1" parent="1" source="hMa2aBz3UgqQ90zIbsve-5" target="hMa2aBz3UgqQ90zIbsve-3">
          <mxGeometry relative="1" as="geometry" />
        </mxCell>
        <mxCell id="hMa2aBz3UgqQ90zIbsve-31" value="88元" style="edgeLabel;html=1;align=center;verticalAlign=middle;resizable=0;points=[];" vertex="1" connectable="0" parent="hMa2aBz3UgqQ90zIbsve-6">
          <mxGeometry x="-0.4614" relative="1" as="geometry">
            <mxPoint as="offset" />
          </mxGeometry>
        </mxCell>
        <mxCell id="hMa2aBz3UgqQ90zIbsve-5" value="深圳坪山&lt;br&gt;深圳北" style="rounded=1;whiteSpace=wrap;html=1;" vertex="1" parent="1">
          <mxGeometry x="165" y="110" width="120" height="60" as="geometry" />
        </mxCell>
        <mxCell id="hMa2aBz3UgqQ90zIbsve-14" style="edgeStyle=orthogonalEdgeStyle;rounded=0;orthogonalLoop=1;jettySize=auto;html=1;exitX=0.5;exitY=1;exitDx=0;exitDy=0;entryX=0.5;entryY=0;entryDx=0;entryDy=0;" edge="1" parent="1" source="hMa2aBz3UgqQ90zIbsve-7" target="hMa2aBz3UgqQ90zIbsve-8">
          <mxGeometry relative="1" as="geometry" />
        </mxCell>
        <mxCell id="hMa2aBz3UgqQ90zIbsve-7" value="旺角" style="rounded=1;whiteSpace=wrap;html=1;" vertex="1" parent="1">
          <mxGeometry x="165" y="330" width="120" height="60" as="geometry" />
        </mxCell>
        <mxCell id="hMa2aBz3UgqQ90zIbsve-15" style="edgeStyle=orthogonalEdgeStyle;rounded=0;orthogonalLoop=1;jettySize=auto;html=1;exitX=0.5;exitY=1;exitDx=0;exitDy=0;entryX=0.5;entryY=0;entryDx=0;entryDy=0;" edge="1" parent="1" source="hMa2aBz3UgqQ90zIbsve-8" target="hMa2aBz3UgqQ90zIbsve-9">
          <mxGeometry relative="1" as="geometry" />
        </mxCell>
        <mxCell id="hMa2aBz3UgqQ90zIbsve-8" value="油麻地" style="rounded=1;whiteSpace=wrap;html=1;" vertex="1" parent="1">
          <mxGeometry x="165" y="450" width="120" height="60" as="geometry" />
        </mxCell>
        <mxCell id="hMa2aBz3UgqQ90zIbsve-16" style="edgeStyle=orthogonalEdgeStyle;rounded=0;orthogonalLoop=1;jettySize=auto;html=1;exitX=0.5;exitY=1;exitDx=0;exitDy=0;entryX=0.5;entryY=0;entryDx=0;entryDy=0;" edge="1" parent="1" source="hMa2aBz3UgqQ90zIbsve-9" target="hMa2aBz3UgqQ90zIbsve-19">
          <mxGeometry relative="1" as="geometry" />
        </mxCell>
        <mxCell id="hMa2aBz3UgqQ90zIbsve-20" value="步行10分钟" style="edgeLabel;html=1;align=center;verticalAlign=middle;resizable=0;points=[];" vertex="1" connectable="0" parent="hMa2aBz3UgqQ90zIbsve-16">
          <mxGeometry x="-0.6764" y="-1" relative="1" as="geometry">
            <mxPoint x="1" y="15" as="offset" />
          </mxGeometry>
        </mxCell>
        <mxCell id="hMa2aBz3UgqQ90zIbsve-9" value="尖沙咀" style="rounded=1;whiteSpace=wrap;html=1;" vertex="1" parent="1">
          <mxGeometry x="165" y="555" width="120" height="60" as="geometry" />
        </mxCell>
        <mxCell id="hMa2aBz3UgqQ90zIbsve-55" style="rounded=0;orthogonalLoop=1;jettySize=auto;html=1;exitX=1;exitY=1;exitDx=0;exitDy=0;entryX=0;entryY=0.5;entryDx=0;entryDy=0;" edge="1" parent="1" source="hMa2aBz3UgqQ90zIbsve-10" target="hMa2aBz3UgqQ90zIbsve-27">
          <mxGeometry relative="1" as="geometry" />
        </mxCell>
        <mxCell id="hMa2aBz3UgqQ90zIbsve-56" value="往6号码头方向去买观光车票" style="edgeLabel;html=1;align=center;verticalAlign=middle;resizable=0;points=[];" vertex="1" connectable="0" parent="hMa2aBz3UgqQ90zIbsve-55">
          <mxGeometry x="0.0343" y="1" relative="1" as="geometry">
            <mxPoint as="offset" />
          </mxGeometry>
        </mxCell>
        <mxCell id="hMa2aBz3UgqQ90zIbsve-61" style="edgeStyle=orthogonalEdgeStyle;rounded=0;orthogonalLoop=1;jettySize=auto;html=1;exitX=0.5;exitY=1;exitDx=0;exitDy=0;entryX=0.5;entryY=0;entryDx=0;entryDy=0;" edge="1" parent="1" source="hMa2aBz3UgqQ90zIbsve-10" target="hMa2aBz3UgqQ90zIbsve-59">
          <mxGeometry relative="1" as="geometry" />
        </mxCell>
        <mxCell id="hMa2aBz3UgqQ90zIbsve-10" value="中环站" style="rounded=1;whiteSpace=wrap;html=1;" vertex="1" parent="1">
          <mxGeometry x="165" y="820" width="120" height="60" as="geometry" />
        </mxCell>
        <mxCell id="hMa2aBz3UgqQ90zIbsve-12" style="rounded=0;orthogonalLoop=1;jettySize=auto;html=1;exitX=0.5;exitY=1;exitDx=0;exitDy=0;entryX=1;entryY=0.5;entryDx=0;entryDy=0;" edge="1" parent="1" source="hMa2aBz3UgqQ90zIbsve-11" target="hMa2aBz3UgqQ90zIbsve-7">
          <mxGeometry relative="1" as="geometry" />
        </mxCell>
        <mxCell id="hMa2aBz3UgqQ90zIbsve-33" value="45元" style="edgeLabel;html=1;align=center;verticalAlign=middle;resizable=0;points=[];" vertex="1" connectable="0" parent="hMa2aBz3UgqQ90zIbsve-12">
          <mxGeometry x="-0.0939" relative="1" as="geometry">
            <mxPoint as="offset" />
          </mxGeometry>
        </mxCell>
        <mxCell id="hMa2aBz3UgqQ90zIbsve-11" value="福田口岸步行到落马洲地铁，坐到旺角" style="rounded=1;whiteSpace=wrap;html=1;" vertex="1" parent="1">
          <mxGeometry x="310" y="260" width="120" height="60" as="geometry" />
        </mxCell>
        <mxCell id="hMa2aBz3UgqQ90zIbsve-17" value="" style="shape=curlyBracket;whiteSpace=wrap;html=1;rounded=1;labelPosition=left;verticalLabelPosition=middle;align=right;verticalAlign=middle;" vertex="1" parent="1">
          <mxGeometry x="115" y="330" width="20" height="540" as="geometry" />
        </mxCell>
        <mxCell id="hMa2aBz3UgqQ90zIbsve-18" value="港铁荃湾线" style="text;whiteSpace=wrap;" vertex="1" parent="1">
          <mxGeometry x="40" y="530" width="90" height="40" as="geometry" />
        </mxCell>
        <mxCell id="hMa2aBz3UgqQ90zIbsve-19" value="维多利亚湾" style="ellipse;whiteSpace=wrap;html=1;" vertex="1" parent="1">
          <mxGeometry x="165" y="675" width="120" height="80" as="geometry" />
        </mxCell>
        <mxCell id="hMa2aBz3UgqQ90zIbsve-21" style="edgeStyle=orthogonalEdgeStyle;rounded=0;orthogonalLoop=1;jettySize=auto;html=1;exitX=1;exitY=0.5;exitDx=0;exitDy=0;entryX=1;entryY=0.5;entryDx=0;entryDy=0;" edge="1" parent="1" source="hMa2aBz3UgqQ90zIbsve-9" target="hMa2aBz3UgqQ90zIbsve-10">
          <mxGeometry relative="1" as="geometry">
            <Array as="points">
              <mxPoint x="390" y="585" />
              <mxPoint x="390" y="850" />
            </Array>
          </mxGeometry>
        </mxCell>
        <mxCell id="hMa2aBz3UgqQ90zIbsve-24" style="edgeStyle=orthogonalEdgeStyle;rounded=0;orthogonalLoop=1;jettySize=auto;html=1;exitX=0;exitY=0.5;exitDx=0;exitDy=0;entryX=1;entryY=0.5;entryDx=0;entryDy=0;" edge="1" parent="1" source="hMa2aBz3UgqQ90zIbsve-23" target="hMa2aBz3UgqQ90zIbsve-19">
          <mxGeometry relative="1" as="geometry" />
        </mxCell>
        <mxCell id="hMa2aBz3UgqQ90zIbsve-25" value="看海" style="edgeLabel;html=1;align=center;verticalAlign=middle;resizable=0;points=[];" vertex="1" connectable="0" parent="hMa2aBz3UgqQ90zIbsve-24">
          <mxGeometry x="-0.1403" y="1" relative="1" as="geometry">
            <mxPoint as="offset" />
          </mxGeometry>
        </mxCell>
        <mxCell id="hMa2aBz3UgqQ90zIbsve-23" value="在尖沙咀天星码头坐天星小轮船到中环天星码头站" style="ellipse;whiteSpace=wrap;html=1;" vertex="1" parent="1">
          <mxGeometry x="330" y="675" width="120" height="80" as="geometry" />
        </mxCell>
        <mxCell id="hMa2aBz3UgqQ90zIbsve-27" value="中环（天星码头）公交站排队坐H1观光巴士（会路过尖沙咀天星码头，西九文化中心，终点站是中环，可随时下车）" style="ellipse;whiteSpace=wrap;html=1;" vertex="1" parent="1">
          <mxGeometry x="520" y="850" width="140" height="100" as="geometry" />
        </mxCell>
        <mxCell id="hMa2aBz3UgqQ90zIbsve-28" value="&lt;br&gt;&lt;table border=&quot;0&quot; cellpadding=&quot;0&quot; cellspacing=&quot;0&quot; width=&quot;647&quot; style=&quot;border-collapse:&lt;br/&gt; collapse;width:486pt&quot;&gt; &lt;colgroup&gt;&lt;col width=&quot;268&quot; style=&quot;mso-width-source:userset;mso-width-alt:8576;width:201pt&quot;&gt;&lt;/colgroup&gt; &lt;colgroup&gt;&lt;col width=&quot;93&quot; style=&quot;mso-width-source:userset;mso-width-alt:2976;width:70pt&quot;&gt;&lt;/colgroup&gt; &lt;colgroup&gt;&lt;col width=&quot;286&quot; style=&quot;mso-width-source:userset;mso-width-alt:9152;width:215pt&quot;&gt;&lt;/colgroup&gt; &lt;tbody&gt;&lt;tr height=&quot;19&quot; style=&quot;height:14.25pt&quot;&gt;  &lt;td height=&quot;19&quot; width=&quot;268&quot; style=&quot;height:14.25pt;width:201pt&quot;&gt;港铁（支付宝E出行）&lt;br&gt;&lt;/td&gt;  &lt;td width=&quot;93&quot; style=&quot;width:70pt&quot;&gt;&lt;/td&gt;  &lt;td width=&quot;286&quot; style=&quot;width:215pt&quot;&gt;&lt;br&gt;&lt;/td&gt; &lt;/tr&gt; &lt;tr height=&quot;19&quot; style=&quot;height:14.25pt&quot;&gt;  &lt;td height=&quot;19&quot; style=&quot;height:14.25pt&quot;&gt;流量包（10元800M）&lt;br&gt;&lt;/td&gt;  &lt;td&gt;&lt;/td&gt;  &lt;td&gt;&lt;br&gt;&lt;/td&gt; &lt;/tr&gt;&lt;/tbody&gt;&lt;/table&gt;" style="text;whiteSpace=wrap;html=1;" vertex="1" parent="1">
          <mxGeometry x="520" y="80" width="260" height="70" as="geometry" />
        </mxCell>
        <mxCell id="hMa2aBz3UgqQ90zIbsve-34" value="油麻地警署" style="html=1;shadow=0;dashed=0;align=center;verticalAlign=middle;shape=mxgraph.arrows2.arrow;dy=0.6;dx=40;flipH=1;notch=0;" vertex="1" parent="1">
          <mxGeometry x="285" y="450" width="100" height="70" as="geometry" />
        </mxCell>
        <mxCell id="hMa2aBz3UgqQ90zIbsve-35" value="下车完成身份认证" style="html=1;shadow=0;dashed=0;align=center;verticalAlign=middle;shape=mxgraph.arrows2.arrow;dy=0.6;dx=40;notch=0;" vertex="1" parent="1">
          <mxGeometry x="50" y="205" width="115" height="70" as="geometry" />
        </mxCell>
        <mxCell id="hMa2aBz3UgqQ90zIbsve-38" value="打卡名人手印" style="html=1;shadow=0;dashed=0;align=center;verticalAlign=middle;shape=mxgraph.arrows2.arrow;dy=0.6;dx=40;notch=0;" vertex="1" parent="1">
          <mxGeometry x="65" y="680" width="100" height="70" as="geometry" />
        </mxCell>
        <mxCell id="hMa2aBz3UgqQ90zIbsve-43" value="bighouse蛋挞" style="html=1;shadow=0;dashed=0;align=center;verticalAlign=middle;shape=mxgraph.arrows2.arrow;dy=0.6;dx=40;flipH=1;notch=0;" vertex="1" parent="1">
          <mxGeometry x="285" y="340" width="100" height="70" as="geometry" />
        </mxCell>
        <mxCell id="hMa2aBz3UgqQ90zIbsve-45" value="尖沙咀码头的钟楼打卡&lt;br&gt;（ps可以领取香港有礼，吃饭好像有打折）" style="html=1;shadow=0;dashed=0;align=center;verticalAlign=middle;shape=mxgraph.arrows2.arrow;dy=0.6;dx=40;flipH=1;notch=0;" vertex="1" parent="1">
          <mxGeometry x="290" y="530" width="260" height="90" as="geometry" />
        </mxCell>
        <mxCell id="hMa2aBz3UgqQ90zIbsve-46" value="铜锣湾" style="rounded=1;whiteSpace=wrap;html=1;" vertex="1" parent="1">
          <mxGeometry x="580" y="745" width="120" height="60" as="geometry" />
        </mxCell>
        <mxCell id="hMa2aBz3UgqQ90zIbsve-51" value="荣记粉面" style="html=1;shadow=0;dashed=0;align=center;verticalAlign=middle;shape=mxgraph.arrows2.arrow;dy=0.6;dx=40;flipH=1;notch=0;" vertex="1" parent="1">
          <mxGeometry x="700" y="740" width="100" height="70" as="geometry" />
        </mxCell>
        <mxCell id="hMa2aBz3UgqQ90zIbsve-54" value="C出口有西九艺术公园" style="html=1;shadow=0;dashed=0;align=center;verticalAlign=middle;shape=mxgraph.arrows2.arrow;dy=0.6;dx=40;flipH=1;notch=0;" vertex="1" parent="1">
          <mxGeometry x="290" y="190" width="170" height="70" as="geometry" />
        </mxCell>
        <mxCell id="hMa2aBz3UgqQ90zIbsve-57" value="中环：摩天轮20元一人，晚上合适" style="html=1;shadow=0;dashed=0;align=center;verticalAlign=middle;shape=mxgraph.arrows2.arrow;dy=0.6;dx=40;flipH=1;notch=0;" vertex="1" parent="1">
          <mxGeometry x="290" y="790" width="260" height="70" as="geometry" />
        </mxCell>
        <mxCell id="hMa2aBz3UgqQ90zIbsve-64" style="edgeStyle=orthogonalEdgeStyle;rounded=0;orthogonalLoop=1;jettySize=auto;html=1;exitX=0.5;exitY=1;exitDx=0;exitDy=0;entryX=0.5;entryY=0;entryDx=0;entryDy=0;" edge="1" parent="1" source="hMa2aBz3UgqQ90zIbsve-59" target="hMa2aBz3UgqQ90zIbsve-63">
          <mxGeometry relative="1" as="geometry" />
        </mxCell>
        <mxCell id="hMa2aBz3UgqQ90zIbsve-65" value="叮叮车总站出发" style="edgeLabel;html=1;align=center;verticalAlign=middle;resizable=0;points=[];" vertex="1" connectable="0" parent="hMa2aBz3UgqQ90zIbsve-64">
          <mxGeometry x="-0.131" relative="1" as="geometry">
            <mxPoint as="offset" />
          </mxGeometry>
        </mxCell>
        <mxCell id="hMa2aBz3UgqQ90zIbsve-59" value="坚尼地铁站" style="rounded=1;whiteSpace=wrap;html=1;" vertex="1" parent="1">
          <mxGeometry x="165" y="920" width="120" height="60" as="geometry" />
        </mxCell>
        <mxCell id="hMa2aBz3UgqQ90zIbsve-60" value="C口出去到篮球场，黄昏拍照可以" style="html=1;shadow=0;dashed=0;align=center;verticalAlign=middle;shape=mxgraph.arrows2.arrow;dy=0.6;dx=40;flipH=1;notch=0;" vertex="1" parent="1">
          <mxGeometry x="285" y="930" width="240" height="70" as="geometry" />
        </mxCell>
        <mxCell id="hMa2aBz3UgqQ90zIbsve-63" value="会展中心下车走到金紫荆广场" style="rounded=1;whiteSpace=wrap;html=1;" vertex="1" parent="1">
          <mxGeometry x="165" y="1040" width="120" height="60" as="geometry" />
        </mxCell>
      </root>
    </mxGraphModel>
  </diagram>
</mxfile>
